#!OML:ASF F:\VICON\USERDATA\INSTALL\Justin_Nancy\Justin_Nancy.ASF
:FULLY-SPECIFIED
:DEGREES
120
root 0.00875488 17.0031 35.7817 3.4958 -5.5753 -6.52112
lowerback 11.9383 2.84092 6.47416
upperback -0.892906 5.06399 4.63232
thorax -7.53814 2.29894 0.372065
lowerneck -20.483 -4.36307 -9.45924
upperneck 14.3796 -4.36529 6.19477
head 8.16211 -1.97233 3.05397
rclavicle -2.97183e-014 -4.37326e-014
rhumerus -37.745 15.9984 -93.7776
rradius 132.276
rwrist -12.8471
rhand -17.8303 32.1582
rfingers 7.12502
rthumb 8.43415 2.34659
lclavicle -2.97183e-014 -4.37326e-014
lhumerus -61.1484 -6.71274 100.231
lradius 102.958
lwrist 24.1345
lhand -13.3924 4.77703
lfingers 7.12502
lthumb 12.715 34.3699
rfemur 4.91091 1.98336 30.952
rtibia 34.7774
rfoot -6.30041 -1.97442
rtoes -20.3604
lfemur -41.9065 5.56335 -13.6179
ltibia 88.4856
lfoot 1.39394 3.71758
ltoes -10.2867
121
root 0.0310284 17.0923 36.4169 3.68768 -5.19461 -6.4402
lowerback 11.4235 2.97911 6.63818
upperback -1.35848 5.26021 4.62144
thorax -7.72656 2.37756 0.25634
lowerneck -19.2972 -4.51833 -9.78467
upperneck 14.3657 -4.65265 6.44921
head 7.99485 -2.12176 3.1648
rclavicle -1.2921e-015 -3.10104e-014
rhumerus -38.379 15.7406 -93.5668
rradius 133.758
rwrist -14.3691
rhand -15.0721 34.3851
rfingers 7.12502
rthumb 11.0952 4.69835
lclavicle -1.2921e-015 -3.10104e-014
lhumerus -62.7001 -6.30135 100.38
lradius 103.247
lwrist 24.2163
lhand -13.0688 4.50707
lfingers 7.12502
lthumb 13.0269 34.0803
rfemur 7.39905 1.67604 30.3199
rtibia 32.3191
rfoot -1.42043 -0.0207104
rtoes -20.1444
lfemur -42.7727 4.7016 -14.1312
ltibia 84.6494
lfoot 0.720907 4.15823
ltoes -10.8498
122
root 0.0547458 17.1769 37.0612 3.94575 -4.59116 -6.39386
lowerback 10.4906 3.04691 7.0423
upperback -1.63288 5.3208 4.48762
thorax -7.43772 2.39465 -0.0675437
lowerneck -18.545 -4.67449 -9.83253
upperneck 14.475 -4.96707 6.61917
head 7.93602 -2.27124 3.19701
rclavicle -2.18663e-014 -5.56597e-015
rhumerus -39.1272 15.3005 -93.4874
rradius 134.968
rwrist -15.3894
rhand -13.1376 37.1477
rfingers 7.12502
rthumb 12.9606 7.57028
lclavicle -2.18663e-014 -5.56597e-015
lhumerus -63.6274 -6.15286 100.271
lradius 103.293
lwrist 24.0867
lhand -12.8758 5.91925
lfingers 7.12502
lthumb 13.2129 35.4805
rfemur 9.79246 1.22404 29.6751
rtibia 29.5442
rfoot 4.64634 1.62439
rtoes -18.2036
lfemur -43.2998 3.53106 -14.5254
ltibia 80.3691
lfoot 0.289943 4.23671
ltoes -11.277
123
root 0.0744553 17.2929 37.7312 4.02294 -3.99581 -6.35489
lowerback 9.20637 3.20773 7.72011
upperback -1.42464 5.43235 4.17688
thorax -6.38143 2.45839 -0.69366
lowerneck -18.6519 -5.09743 -10.0457
upperneck 14.5978 -5.58699 7.1568
head 8.07291 -2.52272 3.33179
rclavicle 3.57812e-014 3.33958e-014
rhumerus -37.9798 15.0984 -93.1605
rradius 135.837
rwrist -15.5934
rhand -12.2038 38.2941
rfingers 7.12502
rthumb 13.8606 8.77597
lclavicle 3.57812e-014 3.33958e-014
lhumerus -63.9205 -6.45128 99.8934
lradius 103.398
lwrist 23.995
lhand -12.6099 6.743
lfingers 7.12502
lthumb 13.4692 36.2875
rfemur 12.5301 1.10364 29.1594
rtibia 26.3563
rfoot 11.9645 2.04306
rtoes -16.5394
lfemur -43.6043 2.21701 -14.651
ltibia 75.8894
lfoot -0.151829 4.09676
ltoes -8.19561
124
root 0.0916398 17.3626 38.3999 3.91895 -3.49138 -6.06155
lowerback 7.99823 3.3936 8.19488
upperback -1.14854 5.53708 3.72768
thorax -5.30302 2.53475 -1.34054
lowerneck -18.6751 -5.55294 -10.2863
upperneck 14.5324 -6.28033 7.87247
head 8.15239 -2.7931 3.52016
rclavicle 5.74985e-014 6.44062e-014
rhumerus -34.8422 15.9928 -92.6803
rradius 136.45
rwrist -14.7494
rhand -12.9253 36.1205
rfingers 7.12502
rthumb 13.1652 6.55618
lclavicle 5.74985e-014 6.44062e-014
lhumerus -64.5194 -6.65881 99.2785
lradius 103.99
lwrist 24.4419
lhand -12.4411 6.59535
lfingers 7.12502
lthumb 13.6319 36.129
rfemur 15.5371 1.18453 28.4157
rtibia 23.1034
rfoot 18.9334 1.29273
rtoes -16.2714
lfemur -43.3938 1.25726 -15.114
ltibia 71.1973
lfoot -0.660546 3.56987
ltoes -8.55137
125
root 0.104025 17.4181 39.065 3.83534 -3.05437 -5.65101
lowerback 8.10482 3.4953 7.76982
upperback -1.83252 5.7018 3.68825
thorax -6.11431 2.5852 -1.20051
lowerneck -18.1732 -5.71999 -10.6169
upperneck 15.4124 -6.54476 7.97936
head 8.40261 -2.9403 3.58728
rclavicle 1.30204e-014 -3.49861e-014
rhumerus -35.6275 16.2719 -92.533
rradius 137.285
rwrist -14.5664
rhand -12.1576 37.6263
rfingers 7.12502
rthumb 13.9051 8.11117
lclavicle 1.30204e-014 -3.49861e-014
lhumerus -66.7299 -5.9306 99.1856
lradius 104.878
lwrist 24.8792
lhand -12.9482 5.11598
lfingers 7.12502
lthumb 13.1431 34.6818
rfemur 18.4531 1.67189 27.7665
rtibia 20.0351
rfoot 24.3783 -0.0812946
rtoes -13.1551
lfemur -43.0617 0.447399 -15.6791
ltibia 66.3316
lfoot -1.01754 2.68089
ltoes -10.6989
126
root 0.106534 17.4653 39.7139 3.73335 -2.82583 -5.48247
lowerback 6.9421 3.61455 8.03399
upperback -1.38392 5.69657 3.36233
thorax -4.91627 2.62615 -1.57875
lowerneck -18.7241 -5.82482 -10.4832
upperneck 15.8269 -6.76522 8.33365
head 8.67015 -2.98738 3.65258
rclavicle 4.72611e-014 5.32743e-014
rhumerus -34.2543 16.6064 -92.2896
rradius 137.791
rwrist -14.741
rhand -10.8104 39.4968
rfingers 7.12502
rthumb 15.2032 10.0753
lclavicle 4.72611e-014 5.32743e-014
lhumerus -66.9874 -5.68181 98.268
lradius 105.632
lwrist 25.4574
lhand -13.1087 3.90663
lfingers 7.12502
lthumb 12.9884 33.4823
rfemur 20.8905 2.74575 27.7456
rtibia 17.9775
rfoot 28.479 -0.817256
rtoes -8.70899
lfemur -42.6058 -0.162631 -15.8414
ltibia 61.3319
lfoot -1.00221 1.6835
ltoes -11.6785
